<?xml version="1.0" encoding="UTF-8"?> <svg xmlns="http://www.w3.org/2000/svg" xmlns:xlink="http://www.w3.org/1999/xlink" width="806" height="531" viewBox="0 0 806 531"><defs><clipPath id="clip-path"><path id="Path_47426" data-name="Path 47426" d="M0,0H716.944V417.632H0Z" transform="translate(0 0)" fill="none"></path></clipPath><clipPath id="clip-path-2"><rect id="Rectangle_17264" data-name="Rectangle 17264" width="256.683" height="169.509" fill="none"></rect></clipPath></defs><g id="Group_24466" data-name="Group 24466" transform="translate(-25585.539 -8516.156)"><rect id="Rectangle_17265" data-name="Rectangle 17265" width="806" height="531" transform="translate(25585.539 8516.156)" fill="none"></rect><g id="Group_24461" data-name="Group 24461" transform="translate(25630.332 8580.748)"><g id="Mask_Group_19993" data-name="Mask Group 19993" transform="translate(0 0)" clip-path="url(#clip-path)"><path id="Path_47384" data-name="Path 47384" d="M74.333,416.736s-63.628-80.635.909-180.853c59.845-92.932,152.48-48.346,210.883-133.654C434.1-113.906,749.961,52.247,702.57,235.94c-22.934,88.894,69.8,92.125,22.547,180.985Z" transform="translate(-34.334 -0.005)" fill="#009081"></path><path id="Path_47430" data-name="Path 47430" d="M39.123,57.418a1.241,1.241,0,0,0-.688,1.115c.007,2.314-1.909,5.993-3.1,7.744L24.349,65.6c-.967-1.886-2.415-5.771-2.122-8.068a1.243,1.243,0,0,0-.545-1.191l-7.211-4.781a1.245,1.245,0,0,0-1.31-.038c-2,1.164-6.144,1.344-8.257,1.187L0,42.854c1.15-1.781,3.791-4.977,5.926-5.872a1.243,1.243,0,0,0,.759-1.068l.535-8.636A1.242,1.242,0,0,0,6.6,26.126c-2.008-1.152-4.235-4.649-5.157-6.557l6.082-9.174c2.117.106,6.205.8,8.048,2.2a1.242,1.242,0,0,0,1.3.124l7.745-3.855a1.241,1.241,0,0,0,.688-1.114C25.3,5.43,27.217,1.752,28.409,0L39.395.68c.967,1.886,2.415,5.772,2.122,8.068a1.242,1.242,0,0,0,.545,1.191l7.212,4.781a1.243,1.243,0,0,0,1.31.038c2-1.164,6.143-1.344,8.257-1.187l4.9,9.854c-1.15,1.781-3.791,4.976-5.926,5.872a1.243,1.243,0,0,0-.759,1.068L56.524,39a1.243,1.243,0,0,0,.622,1.153C59.154,41.3,61.381,44.8,62.3,46.71l-6.081,9.173c-2.117-.106-6.205-.795-8.048-2.2a1.241,1.241,0,0,0-1.3-.123Zm3.568-23.61A10.84,10.84,0,1,0,31.2,43.958,10.839,10.839,0,0,0,42.691,33.809m6.939.429A17.792,17.792,0,1,0,30.773,50.9,17.791,17.791,0,0,0,49.63,34.238" transform="translate(704.4 153.256) rotate(120)" fill="#06233d"></path><path id="Path_47431" data-name="Path 47431" d="M95.554,49.921a2.032,2.032,0,0,0,1.583,1.445c3.723.694,9.051,4.892,11.5,7.341L104.2,76.158c-3.326.98-10.011,2.124-13.614.955a2.032,2.032,0,0,0-2.08.514L78.631,87.763a2.031,2.031,0,0,0-.46,2.093c1.261,3.571.29,10.284-.605,13.634l-17.331,4.883c-2.512-2.391-6.845-7.609-7.634-11.313a2.032,2.032,0,0,0-1.485-1.545L37.4,92.028a2.032,2.032,0,0,0-2.043.648c-2.462,2.877-8.761,5.392-12.11,6.292L10.351,86.4c.814-3.37,3.166-9.732,5.98-12.267a2.033,2.033,0,0,0,.6-2.059L13.088,58.452A2.031,2.031,0,0,0,11.5,57.007C7.782,56.314,2.454,52.115,0,49.666L4.437,32.215c3.326-.98,10.012-2.124,13.614-.955a2.032,2.032,0,0,0,2.081-.513L30.01,20.61a2.032,2.032,0,0,0,.46-2.093c-1.261-3.571-.289-10.284.605-13.634L48.407,0c2.512,2.39,6.846,7.608,7.634,11.312a2.032,2.032,0,0,0,1.485,1.545l13.718,3.487a2.031,2.031,0,0,0,2.042-.648C75.748,12.819,82.048,10.3,85.4,9.4L98.291,21.971c-.814,3.37-3.166,9.733-5.979,12.267a2.031,2.031,0,0,0-.6,2.059ZM58.69,37A17.733,17.733,0,1,0,71.507,58.556,17.733,17.733,0,0,0,58.69,37m2.8-11.023A29.106,29.106,0,1,0,82.53,61.358a29.106,29.106,0,0,0-21.037-35.38" transform="translate(669.395 89.204) rotate(120)" fill="#4e60a5"></path><g id="Group_24462" data-name="Group 24462" transform="translate(329.885 19.175)"><rect id="Rectangle_17244" data-name="Rectangle 17244" width="256.683" height="169.509" transform="translate(0 0)" fill="#fff"></rect><rect id="Rectangle_17245" data-name="Rectangle 17245" width="22.051" height="62.069" transform="translate(24.814 78.684)" fill="rgba(0,144,129,0.25)"></rect><rect id="Rectangle_17246" data-name="Rectangle 17246" width="22.051" height="43.211" transform="translate(52.583 97.542)" fill="rgba(0,144,129,0.25)"></rect><rect id="Rectangle_17247" data-name="Rectangle 17247" width="22.051" height="86.422" transform="translate(80.35 54.331)" fill="rgba(0,144,129,0.25)"></rect><rect id="Rectangle_17248" data-name="Rectangle 17248" width="22.051" height="62.069" transform="translate(108.117 78.684)" fill="rgba(0,144,129,0.25)"></rect><rect id="Rectangle_17249" data-name="Rectangle 17249" width="22.051" height="86.422" transform="translate(135.886 54.331)" fill="rgba(0,144,129,0.25)"></rect><rect id="Rectangle_17250" data-name="Rectangle 17250" width="22.051" height="79.557" transform="translate(163.652 61.196)" fill="rgba(0,144,129,0.25)"></rect><rect id="Rectangle_17251" data-name="Rectangle 17251" width="22.051" height="96.756" transform="translate(191.421 43.997)" fill="rgba(0,144,129,0.25)"></rect><rect id="Rectangle_17252" data-name="Rectangle 17252" width="22.051" height="6.211" transform="translate(24.816 134.542)" fill="#009081"></rect><rect id="Rectangle_17253" data-name="Rectangle 17253" width="22.051" height="24.846" transform="translate(52.583 115.907)" fill="#009081"></rect><rect id="Rectangle_17254" data-name="Rectangle 17254" width="22.051" height="12.424" transform="translate(80.352 128.329)" fill="#009081"></rect><rect id="Rectangle_17255" data-name="Rectangle 17255" width="22.051" height="24.846" transform="translate(108.119 115.907)" fill="#009081"></rect><rect id="Rectangle_17256" data-name="Rectangle 17256" width="22.051" height="39.777" transform="translate(135.886 100.976)" fill="#009081"></rect><rect id="Rectangle_17257" data-name="Rectangle 17257" width="22.051" height="24.846" transform="translate(163.654 115.907)" fill="#009081"></rect><rect id="Rectangle_17258" data-name="Rectangle 17258" width="22.051" height="62.069" transform="translate(191.421 78.684)" fill="#009081"></rect><rect id="Rectangle_17259" data-name="Rectangle 17259" width="34.83" height="5.131" transform="translate(205.716 7.622)" fill="#06233d"></rect><rect id="Rectangle_17260" data-name="Rectangle 17260" width="17.952" height="2.088" transform="translate(205.716 18.958)" fill="#a4b0bc"></rect><rect id="Rectangle_17261" data-name="Rectangle 17261" width="11.462" height="2.088" transform="translate(226.595 18.958)" fill="#a4b0bc"></rect><path id="Path_47418" data-name="Path 47418" d="M120.165,11.629v1.394h-1.17V11.629H100.457v2.088H128.07V11.629Z" transform="translate(111.404 12.897)" fill="#a4b0bc"></path><rect id="Rectangle_17262" data-name="Rectangle 17262" width="4.682" height="2.088" transform="translate(205.716 24.525)" fill="#a4b0bc"></rect><rect id="Rectangle_17263" data-name="Rectangle 17263" width="4.391" height="2.088" transform="translate(240.546 24.525)" fill="#a4b0bc"></rect><g id="Group_24463" data-name="Group 24463" transform="translate(0 0)"><g id="Group_24462-2" data-name="Group 24462" clip-path="url(#clip-path-2)"><path id="Path_47419" data-name="Path 47419" d="M28.524,21.443H15a2.148,2.148,0,0,1-2.149-2.149v-.042A2.148,2.148,0,0,1,15,17.1H28.524a2.148,2.148,0,0,1,2.149,2.149v.042a2.148,2.148,0,0,1-2.149,2.149" transform="translate(14.246 18.968)" fill="#ea555f"></path><path id="Path_47420" data-name="Path 47420" d="M41.613,21.443H28.084a2.148,2.148,0,0,1-2.149-2.149v-.042A2.148,2.148,0,0,1,28.084,17.1H41.613a2.148,2.148,0,0,1,2.149,2.149v.042a2.148,2.148,0,0,1-2.149,2.149" transform="translate(28.761 18.968)" fill="#ea555f"></path><path id="Path_47421" data-name="Path 47421" d="M54.779,21.443H41.25A2.148,2.148,0,0,1,39.1,19.294v-.042A2.148,2.148,0,0,1,41.25,17.1H54.779a2.148,2.148,0,0,1,2.149,2.149v.042a2.148,2.148,0,0,1-2.149,2.149" transform="translate(43.362 18.968)" fill="#ea555f"></path><path id="Path_47422" data-name="Path 47422" d="M67.945,21.443H54.416a2.148,2.148,0,0,1-2.149-2.149v-.042A2.148,2.148,0,0,1,54.416,17.1H67.945a2.148,2.148,0,0,1,2.149,2.149v.042a2.148,2.148,0,0,1-2.149,2.149" transform="translate(57.963 18.968)" fill="#ea555f"></path><path id="Path_47423" data-name="Path 47423" d="M81.112,21.443H67.583a2.148,2.148,0,0,1-2.149-2.149v-.042A2.148,2.148,0,0,1,67.583,17.1H81.112a2.148,2.148,0,0,1,2.149,2.149v.042a2.148,2.148,0,0,1-2.149,2.149" transform="translate(72.565 18.968)" fill="#ea555f"></path><path id="Path_47424" data-name="Path 47424" d="M94.278,21.443H80.749A2.148,2.148,0,0,1,78.6,19.294v-.042A2.148,2.148,0,0,1,80.749,17.1H94.278a2.148,2.148,0,0,1,2.149,2.149v.042a2.148,2.148,0,0,1-2.149,2.149" transform="translate(87.166 18.968)" fill="#ea555f"></path><path id="Path_47425" data-name="Path 47425" d="M107.209,21.443H93.68a2.148,2.148,0,0,1-2.149-2.149v-.042A2.148,2.148,0,0,1,93.68,17.1h13.529a2.148,2.148,0,0,1,2.149,2.149v.042a2.148,2.148,0,0,1-2.149,2.149" transform="translate(101.506 18.968)" fill="#ea555f"></path></g></g></g><path id="Path_47385" data-name="Path 47385" d="M1008.446,812.678,842.377,967.147l-85.5-80.974c-16.006,15.671-40.725,39.858-65.592,64.129-16.994,16.588-30.753,29.991-41.9,40.837l-77.663-.09C593.26,970.66,679.985,885.93,738.41,828.667l17.865-17.508L842.7,893.015,969.584,774.994Z" transform="translate(-423.761 -574.429)" fill="#ea555f"></path><path id="Path_47386" data-name="Path 47386" d="M2029.591,669.841l78.266,82.356,15.653-93.994Z" transform="translate(-1504.339 -487.863)" fill="#ea555f"></path><g id="Group_24464" data-name="Group 24464" transform="translate(262.018 62.456)"><path id="Path_47388" data-name="Path 47388" d="M1197.565,1157.566l43.226-10.016a10.53,10.53,0,0,0,7.859-12.6l-4.34-18.733a10.53,10.53,0,0,0-12.6-7.859l-43.227,10.015a10.531,10.531,0,0,0-7.859,12.6l4.34,18.732a10.531,10.531,0,0,0,12.6,7.859" transform="translate(-1113.187 -916.569)" fill="#f99746"></path><path id="Path_47389" data-name="Path 47389" d="M1224.165,1106.094v0a10.577,10.577,0,0,0-9.081-3.3h0a.009.009,0,0,1-.008,0c-.338.044-.676.1-1.017.182l-8.607,2-.937-4.042a3.479,3.479,0,0,0-4.172-2.6l-2.246.519-9.038,2.094-1.629.378a3.481,3.481,0,0,0-2.6,4.172l.938,4.043-14.858,3.441a10.572,10.572,0,0,0-7.889,12.646l4.393,18.95a10.569,10.569,0,0,0,12.645,7.887l43.15-10a10.279,10.279,0,0,0,2.159-.758h0l0,0a10.368,10.368,0,0,0,2.88-2.041,10.557,10.557,0,0,0,2.842-9.846l-4.389-18.949a10.451,10.451,0,0,0-2.536-4.769m-37.217-1.1a1.3,1.3,0,0,1,.61-1.412,1.317,1.317,0,0,1,.362-.146l1.919-.446,7.114-1.646,3.877-.9a1.3,1.3,0,0,1,1.557.97l.937,4.043-15.441,3.576Z" transform="translate(-1101.278 -909.905)" fill="#ed7d2b"></path><path id="Path_47390" data-name="Path 47390" d="M1241.583,1045.351s-1.305,4.63-.857,6.106c3.036,10,8.287,16.539-5.828,14.85,0,0,.584-.578-2.118-5.665-3.117-5.867-3.064-5.953-.27-10.729l.964-5.454Z" transform="translate(-1147.043 -873.543)" fill="#ffb27d"></path><path id="Path_47391" data-name="Path 47391" d="M1287.066,981.363c-4.261-.259-9.455-1.373-11.348-3.627a10.483,10.483,0,0,0-4.289-3.241l.654-2.79.784-3.332s.255-.3,1.13-.249c0,0,3.341.756,4.582-.2s3.51-.375,4.906.553c1.777,1.18,4.176.99,4.117,1.567,0,0-3.523,1.732-3.194,2.024,3.226,2.864,11.721,4,11.17,6.24-.219.88-6.7,3.167-8.512,3.057" transform="translate(-1174.768 -821.459)" fill="#ffb27d"></path><path id="Path_47392" data-name="Path 47392" d="M1085.583,646.354l-.012,2.316s.631,7.245-8.29,8.3-16.236.921-15.995-4.669c.8-4.329,2.243-11.047,2.3-14.629a25.2,25.2,0,0,0-.317-4.338l17.286-.346,5.092.832Z" transform="translate(-1032.672 -595.322)" fill="#ffb27d"></path><path id="Path_47393" data-name="Path 47393" d="M1089.807,633.824l-.066,12.53a14.616,14.616,0,0,1-6.23,1.375c-7.945,0-13.08-5.826-15.764-10.054a25.2,25.2,0,0,0-.317-4.338l17.286-.345Z" transform="translate(-1036.83 -595.322)" fill="#e2915a"></path><path id="Path_47394" data-name="Path 47394" d="M1057.444,568.706c2.005,10.794,15.933,10.44,21.952,9.761,1.694-.188,2.759-.4,2.759-.4,1.91-.51,2.976-3.518,3.471-7.459.983-7.8-.259-19.246-1.576-22.173-1.983-4.405-5.717-9.171-19.743-5.732s-9.437,12.179-6.863,26.008" transform="translate(-1028.168 -533.472)" fill="#ffb27d"></path><path id="Path_47395" data-name="Path 47395" d="M1028.147,1587.1h19.736a47.731,47.731,0,0,0-1.574-7.084,20.088,20.088,0,0,0-1.118-2.843c-1.919-3.832-14.111-1.395-14.111-1.395s-1.132.97-2.016,4.676a39.33,39.33,0,0,0-.917,6.646" transform="translate(-1010.267 -1232.287)" fill="#233862"></path><path id="Path_47396" data-name="Path 47396" d="M1212.3,1564.1c.054,2.685.392,5.226,1.366,6.229H1252.7c-.5-1.413-1.9-3.537-5.909-4.187-4.554-.737-11.652-2.929-15.8-7.31a11.762,11.762,0,0,1-3.059-5.539c-1.837-8.177-15.186,2.505-15.186,2.505a66.132,66.132,0,0,0-.453,8.3" transform="translate(-1134.777 -1215.514)" fill="#233862"></path><path id="Path_47397" data-name="Path 47397" d="M1091.16,1112.237a61.526,61.526,0,0,1,.98,7.211c1.241,24.207,20.377,79.554,23.8,80.844,5.3,2,13.635-2.249,18-3.639a3.742,3.742,0,0,0,2.626-4.251c-9.477-43.564-12.959-106.295-14.226-143.434a168.522,168.522,0,0,0-3.851-31.629s-46.67-12.452-46.948,3.3c-.245,13.939,15.459,68.6,19.621,91.6" transform="translate(-1039.607 -852.046)" fill="#06233d"></path><path id="Path_47398" data-name="Path 47398" d="M1091.16,1112.237l31.177-63.269a168.522,168.522,0,0,0-3.851-31.629s-46.67-12.452-46.948,3.3c-.245,13.939,15.459,68.6,19.621,91.6" transform="translate(-1039.607 -852.046)" fill="#041422"></path><path id="Path_47399" data-name="Path 47399" d="M1054.887,1025.576l-24.672,178.815s-10.834,2.613-19.262.523c0,0-7.223-95.1-6.621-118.093s-5.184-61.522,1.32-65.771,49.234,4.527,49.234,4.527" transform="translate(-992.948 -856.929)" fill="#06233d"></path><path id="Path_47400" data-name="Path 47400" d="M1072.4,533.311c-3.854,1.214-12-.025-15.411,2.731s-.161,7.3-4.055,8.923l-.015.006a1.921,1.921,0,0,1-2.237-.561c-1.078-1.347-2.57-2.687-3.934-2.132-1.119.458-1.176,1.9-.682,3.309a3.91,3.91,0,0,1-.418,3.535,1.93,1.93,0,0,0-.424,1.423c.323,1.782,1.208,4.1,1.533,5.283l.09,1.243s-6.523-7.061-9.27-13c-1.885-4.077-1.848-19.315,7.374-23.769a.306.306,0,0,1-.088-.1c-.2-.357-.755-.276-.755-.276a4.158,4.158,0,0,1,2.024-.13c-.027-.019.023-.077.134-.161a3.256,3.256,0,0,1,1.245-1.847,3.622,3.622,0,0,0-.59,1.457c2.423-1.277,9.877-4.1,15.788-1.533a49.249,49.249,0,0,0,10.152,3.146,4.233,4.233,0,0,1,3.428,4.312c-.109,2.929-1.128,7.138-3.889,8.144" transform="translate(-1015.983 -516.664)" fill="#233862"></path><path id="Path_47401" data-name="Path 47401" d="M1054.8,702.222l5.681,121.88s47.409.775,46.055-9.954-17.089-108.194-17.089-108.194" transform="translate(-1028.291 -642.132)" fill="#e9f3fe"></path><path id="Path_47402" data-name="Path 47402" d="M1016.906,769.1s-2.407,32.553-7.03,52.99c0,0-27.666,1.468-34.232-9.214,0,0,5.2-43.975,5.2-52.895,0-3.135-.242-7.4-.625-12.162-.575-7.218-1.468-15.577-2.315-22.86-1.177-10.142-2.258-18.2-2.258-18.2l22.81-18.536Z" transform="translate(-974.768 -632.669)" fill="#22407a"></path><path id="Path_47403" data-name="Path 47403" d="M1185.9,808.131s-5.162,3.232-13.29,2.147c-2.958,7.255-9.937,9.721-9.937,9.065,0-.08-1.567-13.7-3.417-29.758-.182-1.6-.368-3.232-.557-4.87-.015-.14-.034-.281-.05-.421-.311-2.689-.622-5.409-.936-8.117-2.226-19.335-4.366-37.871-4.366-37.871-4.851-29.7-8.959-49.325-8.959-49.325,10.35,1.077,17.333,4.764,20.121,9.592,8.26,14.318,14.242,50.129,17.747,76.937.007.068.015.136.026.2.6,4.627,1.135,8.985,1.586,12.911.03.246.057.489.083.728,1.29,11.234,1.949,18.778,1.949,18.778" transform="translate(-1088.87 -633.179)" fill="#22407a"></path><path id="Path_47404" data-name="Path 47404" d="M1124.37,628.261s.451,1.392,3.964.884c0,0,2.95-.426,2.732-1.979a9.572,9.572,0,0,0-6.7,1.095" transform="translate(-1075.331 -591.252)" fill="#fff"></path><path id="Path_47405" data-name="Path 47405" d="M1050.65,681.991c-.058-1.163,5.452-2.77,5.452-2.77s6.305,8.743,16.7,8.894c0,0-2.961,5.762-6.45,7.254,0,0-15.354-6.47-15.7-13.378" transform="translate(-1025.484 -626.581)" fill="#d9e9f9"></path><path id="Path_47406" data-name="Path 47406" d="M1119.041,691.749s5.5-3.263,5.523-6.8c0,0,3.555-.445,5.107,1.279,0,0,1.3,6.062-.426,9.583,0,0-7.926-1.207-10.2-4.062" transform="translate(-1071.728 -630.418)" fill="#d9e9f9"></path><path id="Path_47407" data-name="Path 47407" d="M1106.85,700.7l7.463-1.789a1.13,1.13,0,0,1,.948,1.3c-.027,1.216-2.1,4.768-3.021,5.052s-7.155-2.1-5.39-4.563" transform="translate(-1063.272 -639.896)" fill="#ea555f"></path><path id="Path_47408" data-name="Path 47408" d="M1053.334,678.49c-.058-1.163,3.671-3.56,3.671-3.56s7.217,8.435,17.606,8.586c0,0-2.961,5.762-6.45,7.254,0,0-14.484-5.373-14.828-12.281" transform="translate(-1027.298 -623.679)" fill="#e9f3fe"></path><path id="Path_47409" data-name="Path 47409" d="M1119.041,687.9s5.567-2.951,5.586-6.488a17.772,17.772,0,0,1,4.912,3.2,10.213,10.213,0,0,1-.294,7.347s-7.926-1.207-10.2-4.061" transform="translate(-1071.728 -628.06)" fill="#e9f3fe"></path><path id="Path_47410" data-name="Path 47410" d="M1129.028,810.544a15.834,15.834,0,0,1-3.754,9.164l-3.344,3.775a1.706,1.706,0,0,1-2.832-.245l-4.036-6.33a9.723,9.723,0,0,1-1.389-6.025c.429-4.831,1.234-14.14,1.892-23.123.535-7.278.976-14.348,1.046-18.647.222-13.725-1.576-57.462-1.576-57.462l2.683.14a202.064,202.064,0,0,1,9.769,39.981c.806,5.68,1.412,11.729,1.682,18,0,0,1.157,24.979-.14,40.775" transform="translate(-1068.072 -648.508)" fill="#ea555f"></path><path id="Path_47412" data-name="Path 47412" d="M1046.824,674.93s14.776,61.887,12.424,85.2c0,0-5.433-24.912-18.506-45.318,0,0,4.771-4.2,4.512-5.743a16.333,16.333,0,0,0-6.977-.343s.38-26.676,2.522-29.495a15.614,15.614,0,0,1,6.025-4.3" transform="translate(-1017.117 -623.679)" fill="#233862"></path><path id="Path_47413" data-name="Path 47413" d="M1135.872,681.409c-2.216.179,14.643,60.474,15.892,79.8,0,0-1.481-34.488-1.335-44.428,0,0-6.137-3.249-6.137-4.389s6.547-4.222,6.547-4.222-4.146-21.239-6.408-23.58-8.558-3.183-8.558-3.183" transform="translate(-1082.972 -628.06)" fill="#233862"></path><path id="Path_47414" data-name="Path 47414" d="M1230.348,1071.125s-1.023,1.385-.372,4.864.291,5.4,1.191,4.8,2.759-4.777,2.759-4.777Z" transform="translate(-1146.592 -891.575)" fill="#ffb27d"></path><path id="Path_47415" data-name="Path 47415" d="M1019.815,831.375c-17.2-2.568-28.7-18.643-34.884-30.817-.575-7.217-1.468-15.577-2.315-22.86l4.025-11.483Z" transform="translate(-979.481 -685.403)" fill="#233862"></path><path id="Path_47416" data-name="Path 47416" d="M1213.734,979.626a58.039,58.039,0,0,1-24.695.232c-.182-1.6-.368-3.231-.557-4.87-.015-.14-.034-.28-.049-.421.356-1.4.717-2.791,1.073-4.187,6.156,2.2,19.912,7.032,24.145,8.519.03.246.057.489.083.728" transform="translate(-1118.649 -823.452)" fill="#233862"></path><path id="Path_47417" data-name="Path 47417" d="M996.615,688.21c.005,0-15.116,1.909-22.015,11.54s7.917,62.082,38.667,78.879c14.792,8.08,57.473,9.9,57.473,9.9s2.346.235,3.277-4.488a18.885,18.885,0,0,0,0-4.456s-48.584-18.216-52.855-21.723-24.546-69.651-24.546-69.651" transform="translate(-972.932 -632.658)" fill="#22407a"></path></g><path id="Path_47427" data-name="Path 47427" d="M517.241,144.145a63.711,63.711,0,1,0,63.713,63.71,63.71,63.71,0,0,0-63.713-63.71m0,102.289a38.578,38.578,0,1,1,38.579-38.579,38.579,38.579,0,0,1-38.579,38.579" transform="translate(80.235 134.578)" fill="#ffd255"></path><path id="Path_47428" data-name="Path 47428" d="M517.222,203.668a38.573,38.573,0,0,1-38.55-37.408H453.538a63.694,63.694,0,0,0,127.367,0H555.769a38.569,38.569,0,0,1-38.547,37.408" transform="translate(80.256 177.34)" fill="#06233d"></path><path id="Path_47429" data-name="Path 47429" d="M493.085,146.9l-11,22.669A38.554,38.554,0,0,1,500.6,202.523c0,.39-.018.78-.029,1.168H525.7c.009-.39.029-.777.029-1.168A63.679,63.679,0,0,0,493.085,146.9" transform="translate(135.463 139.908)" fill="#ea555f"></path><g id="Group_24465" data-name="Group 24465" transform="translate(21.914 6.767)"><g id="Group_10073" data-name="Group 10073" transform="translate(0 0)"><g id="Group_24348" data-name="Group 24348" transform="translate(0)"><path id="Path_14407" data-name="Path 14407" d="M71.992,254.778l-32.72,51.629,16.8,10.644,32.72-51.629c.959-1.513-2.041-5.152-6.661-8.08a23.407,23.407,0,0,0-6.433-2.944c-1.85-.475-3.22-.379-3.7.38" transform="translate(-7.079 -123.559)" fill="#b2b2b2"></path><path id="Path_14408" data-name="Path 14408" d="M87.665,249.845c0,8.791,7.371,15.917,16.463,15.917s16.463-7.126,16.463-15.917-7.371-15.917-16.463-15.917-16.463,7.126-16.463,15.917" transform="translate(-30.61 -113.747)" fill="#343849"></path><path id="Path_14409" data-name="Path 14409" d="M25.975,4.4l-6.193,60.81A95.056,95.056,0,0,0,9.952,63.7,95.5,95.5,0,0,0,0,63.2L6.192,2.387C6.374.6,10.982-.4,16.424.152A23.394,23.394,0,0,1,23.3,1.815c1.748.769,2.765,1.692,2.674,2.586" transform="translate(26.848 177.93) rotate(7)" fill="#b2b2b2"></path><path id="Path_14410" data-name="Path 14410" d="M42.2,359.852a14.315,14.315,0,1,1,18.549-7.211A14.076,14.076,0,0,1,42.2,359.852" transform="translate(-4.643 -161.739)" fill="#343849"></path><path id="Path_14411" data-name="Path 14411" d="M10.969,3.423a21.327,21.327,0,0,1,32.8,20.106L42.45,36.288l-9.2-.948L34.568,22.58A12.09,12.09,0,1,0,10.515,20.1L9.2,32.858,0,31.909,1.316,19.149A21.307,21.307,0,0,1,10.969,3.423" transform="translate(4.422 237.359) rotate(7)" fill="#343849"></path><path id="Path_14412" data-name="Path 14412" d="M276.465,250.166l48.37,37.37-12.157,15.735L264.308,265.9c-1.418-1.1.161-5.54,3.505-9.868a23.388,23.388,0,0,1,5.043-4.962c1.576-1.078,2.9-1.455,3.609-.905" transform="translate(-116.25 -121.52)" fill="#b2b2b2"></path><path id="Path_14413" data-name="Path 14413" d="M275.909,244.3c3,8.264-1.5,17.477-10.045,20.578s-17.906-1.082-20.905-9.346,1.5-17.477,10.045-20.578,17.906,1.083,20.905,9.346" transform="translate(-106.642 -113.747)" fill="#343849"></path><path id="Path_14414" data-name="Path 14414" d="M353,276.691l19.681-57.868a97,97,0,0,0,18.826,6.4L371.83,283.094c-.577,1.7-5.294,1.642-10.472-.119a23.385,23.385,0,0,1-6.328-3.163c-1.53-1.142-2.315-2.27-2.026-3.12" transform="translate(-159.602 -106.402)" fill="#b2b2b2"></path><path id="Path_14415" data-name="Path 14415" d="M366.87,309.306a14.315,14.315,0,1,1-19.694,2.865,14.077,14.077,0,0,1,19.694-2.865" transform="translate(-155.307 -149.032)" fill="#343849"></path><path id="Path_14416" data-name="Path 14416" d="M409.474,192.361a21.327,21.327,0,0,1-27.449-26.953l4.147-12.138,8.751,2.989L390.776,168.4a12.09,12.09,0,1,0,22.882,7.816l4.146-12.138,8.751,2.989L422.409,179.2a21.307,21.307,0,0,1-12.936,13.159" transform="translate(-173.185 -74.526)" fill="#343849"></path><rect id="Rectangle_3953" data-name="Rectangle 3953" width="34.23" height="27.875" transform="translate(97.785 99.481)" fill="#d1d1d1"></rect><rect id="Rectangle_3954" data-name="Rectangle 3954" width="34.23" height="8.419" transform="translate(97.785 118.936)" fill="#343849"></rect><rect id="Rectangle_3955" data-name="Rectangle 3955" width="34.23" height="12.677" transform="translate(97.785 99.481)" fill="#343849"></rect><path id="Path_14417" data-name="Path 14417" d="M184.847,263.653H152.279a17.255,17.255,0,0,0-17.2,17.2v22.958a17.255,17.255,0,0,0,17.2,17.2h32.567a17.255,17.255,0,0,0,17.2-17.2V280.858a17.255,17.255,0,0,0-17.2-17.2" transform="translate(-53.663 -128.201)" fill="#343849"></path><path id="Path_14418" data-name="Path 14418" d="M161.415,358.647H157.12a40.893,40.893,0,0,1-40.893-40.893V264.022a20.089,20.089,0,0,1,20.089-20.089h45.9a20.089,20.089,0,0,1,20.089,20.089v53.733a40.893,40.893,0,0,1-40.893,40.893" transform="translate(-44.499 -118.612)" fill="#d1d1d1"></path><path id="Path_14419" data-name="Path 14419" d="M176.65,349.969H169a24.336,24.336,0,0,1-24.336-24.336V283.825a9.741,9.741,0,0,1,9.741-9.741h36.84a9.74,9.74,0,0,1,9.741,9.741v41.808a24.336,24.336,0,0,1-24.336,24.336" transform="translate(-58.326 -133.273)" fill="#343849"></path><path id="Path_14420" data-name="Path 14420" d="M199.029,39.933h-1.618a1.6,1.6,0,0,1-1.6-1.6V16.039a1.6,1.6,0,0,1,1.6-1.6h1.618a1.6,1.6,0,0,1,1.6,1.6V38.331a1.6,1.6,0,0,1-1.6,1.6" transform="translate(-83.195 -7.02)" fill="#d1d1d1"></path><path id="Path_14421" data-name="Path 14421" d="M200.807,5.7a5.7,5.7,0,1,1-5.7-5.7,5.7,5.7,0,0,1,5.7,5.7" transform="translate(-80.084 0.001)" fill="#e75660"></path><path id="Path_14422" data-name="Path 14422" d="M196.4,76.6V62.834A19.023,19.023,0,0,0,177.378,43.81H117.123A19.024,19.024,0,0,0,98.1,62.834V76.6a8.355,8.355,0,0,0-7.112,8.261V101.7a8.355,8.355,0,0,0,7.112,8.262v5.4a12.768,12.768,0,0,0,12.768,12.767h72.767A12.767,12.767,0,0,0,196.4,115.369v-5.4a8.355,8.355,0,0,0,7.113-8.262V84.858A8.355,8.355,0,0,0,196.4,76.6" transform="translate(-32.226 -21.302)" fill="#d1d1d1"></path><path id="Path_14423" data-name="Path 14423" d="M189.379,116.964H131.142a13.4,13.4,0,0,1-13.4-13.4V84.852a13.4,13.4,0,0,1,13.4-13.4h58.237a13.4,13.4,0,0,1,13.4,13.4v18.714a13.4,13.4,0,0,1-13.4,13.4" transform="translate(-45.236 -34.744)" fill="#333949"></path><path id="Path_14424" data-name="Path 14424" d="M150.188,87.443a15.121,15.121,0,1,1-15.12,15.121A15.138,15.138,0,0,1,150.188,87.443Zm0,24.02a8.9,8.9,0,1,0-8.9-8.9A8.909,8.909,0,0,0,150.188,111.463Z" transform="translate(-54.459 -43.317)" fill="#35a398"></path><path id="Path_14425" data-name="Path 14425" d="M226.3,87.443a15.121,15.121,0,1,1-15.12,15.121A15.138,15.138,0,0,1,226.3,87.443Zm0,24.02a8.9,8.9,0,1,0-8.9-8.9A8.909,8.909,0,0,0,226.3,111.463Z" transform="translate(-91.467 -43.317)" fill="#35a398"></path><path id="Path_14426" data-name="Path 14426" d="M92.293,140.736h-4.44a8.791,8.791,0,0,1-8.791-8.791V115.835a8.791,8.791,0,0,1,8.791-8.791h4.44Z" transform="translate(-26.427 -52.05)" fill="#333949"></path><path id="Path_14427" data-name="Path 14427" d="M296.208,140.736h4.44a8.791,8.791,0,0,0,8.791-8.791V115.835a8.791,8.791,0,0,0-8.791-8.791h-4.44Z" transform="translate(-132.014 -52.05)" fill="#333949"></path></g></g><path id="Path_27187" data-name="Path 27187" d="M30.236,31c0,6.662-6.769,12.063-15.118,12.063S0,37.662,0,31Z" transform="translate(100.006 58.398)" fill="#ea555f"></path></g></g></g></g></svg> 